<svg stroke="currentColor" color="#000" stroke-width=".5%" xmlns="http://www.w3.org/2000/svg" xml:space="preserve" viewBox="0 0 500 366">
    <path fill="none" d="m-32.584 8.334 65.168-42.451v68.234L-29.654-7.207V-20.06" stroke-linecap="round" transform="matrix(3.85 0 0 3.78 371.73 233.72)"/>
    <path fill="currentColor" d="M0-2.604a2.605 2.605 0 0 1 0 5.208 2.605 2.605 0 0 1 0-5.208z" stroke-linecap="round" transform="matrix(-3.85 0 0 3.78 250.5 261.72)"/>
    <path fill="none" d="m-32.584 8.334 65.168-42.451v68.234L-29.654-7.207V-20.06" stroke-linecap="round" transform="matrix(-3.85 0 0 -3.78 128.45 131.96)"/>
    <path fill="currentColor" d="M0-2.604a2.605 2.605 0 0 1 0 5.208 2.605 2.605 0 0 1 0-5.208z" stroke-linecap="round" transform="matrix(3.85 0 0 -3.78 250.07 102.72)"/>
</svg>