<svg stroke="#000000" fill="#000000" stroke-width=".5%"  xmlns="http://www.w3.org/2000/svg" xmlns:xlink="http://www.w3.org/1999/xlink" version="1.1" width="500" height="366" viewBox="0 0 500 366" xml:space="preserve">
<g transform="matrix(3.85 0 0 3.78 371.73 233.72)" id="ukTPDJFGl0yzPfBsOUTm5"  >
<path fill="none" d="M -32.58429 8.33367 L 32.58429999999999 -34.11697 L 32.58429999999999 34.11697 L -29.65355000000001 -7.20711 L -29.65355000000001 -20.06007" stroke-linecap="round" />
</g>
<g transform="matrix(-3.85 0 0 3.78 250.5 261.72)" id="T3dSJwIJgloL3-kfyZ7Ry"  >
<path d="M 0 -2.60416 C 1.4375 -2.60416 2.60416 -1.4374899999999997 2.60416 0 C 2.60416 1.4375 1.4374899999999997 2.60416 0 2.60416 C -1.4375 2.60416 -2.60416 1.4374899999999997 -2.60416 0 C -2.60416 -1.4375 -1.4374899999999997 -2.60416 0 -2.60416 z" stroke-linecap="round" />
</g>
<g transform="matrix(-3.85 0 0 -3.78 128.45 131.96)" id="-t5fesk-Qi-ehNmfTMXUx"  >
<path fill="none" d="M -32.58429 8.33367 L 32.58429999999999 -34.11697 L 32.58429999999999 34.11697 L -29.65355000000001 -7.20711 L -29.65355000000001 -20.06007" stroke-linecap="round" />
</g>
<g transform="matrix(3.85 0 0 -3.78 250.07 102.72)" id="SKRDVLNLgBXHllp8DhGTZ"  >
<path d="M 0 -2.60416 C 1.4375 -2.60416 2.60416 -1.4374899999999997 2.60416 0 C 2.60416 1.4375 1.4374899999999997 2.60416 0 2.60416 C -1.4375 2.60416 -2.60416 1.4374899999999997 -2.60416 0 C -2.60416 -1.4375 -1.4374899999999997 -2.60416 0 -2.60416 z" stroke-linecap="round" />
</g>
</svg>