<svg width="24" height="24" fill="none" xmlns="http://www.w3.org/2000/svg">
  <g clip-path="url(#a)">
    <path d="M9.21094 12.6016c-.69 0-1.25.56-1.25 1.25s.56 1.25 1.25 1.25 1.24996-.56 1.24996-1.25-.55996-1.25-1.24996-1.25Zm5.99996 0c-.69 0-1.25.56-1.25 1.25s.56 1.25 1.25 1.25 1.25-.56 1.25-1.25-.56-1.25-1.25-1.25Zm-3-9.75004c-5.51996 0-9.99996 4.48-9.99996 10.00004 0 5.52 4.48 10 9.99996 10 5.52 0 10-4.48 10-10 0-5.52004-4.48-10.00004-10-10.00004Zm0 18.00004c-4.40996 0-7.99996-3.59-7.99996-8 0-.29.02-.58.05-.86 2.36-1.05 4.23-2.98004 5.21-5.37004 1.80996 2.56 4.78996 4.23004 8.15996 4.23004.78 0 1.53-.09 2.25-.26.21.71.33 1.47.33 2.26 0 4.41-3.59 8-8 8Z" fill="#000"/>
  </g>
  <defs>
    <clipPath id="a">
      <path fill="#fff" d="M.210938.851562h24v24h-24z"/>
    </clipPath>
  </defs>
</svg>