<svg width="24" height="24" fill="none" xmlns="http://www.w3.org/2000/svg">
  <g clip-path="url(#a)">
    <path d="M7.38094 17.8516c.51 0 .98-.29 1.2-.74l1.41996-2.84c.14-.28.21-.58.21-.89V8.85156c0-.55-.44996-1-.99996-1h-4c-.55 0-1 .45-1 1v4.00004c0 .55.45 1 1 1h2l-1.03 2.06c-.45.89.2 1.94 1.2 1.94Zm9.99996 0c.51 0 .98-.29 1.2-.74l1.42-2.84c.14-.28.21-.58.21-.89V8.85156c0-.55-.45-1-1-1h-4c-.55 0-1 .45-1 1v4.00004c0 .55.45 1 1 1h2l-1.03 2.06c-.45.89.2 1.94 1.2 1.94Z" fill="#000"/>
  </g>
  <defs>
    <clipPath id="a">
      <path fill="#fff" transform="translate(.210938 .851562)" d="M0 0h24v24H0z"/>
    </clipPath>
  </defs>
</svg>