<svg width="25" height="25" fill="none" xmlns="http://www.w3.org/2000/svg">
  <g clip-path="url(#a)">
    <path d="M17.8607 7.20156c-1.45-1.45-3.44-2.35-5.65-2.35-4.42 0-7.99 3.58-7.99 8.00004 0 4.42 3.57 8 7.99 8 3.73 0 6.84-2.55 7.73-6h-2.08c-.82 2.33-3.04 4-5.65 4-3.31 0-6-2.69-6-6 0-3.31004 2.69-6.00004 6-6.00004 1.66 0 3.14.69 4.22 1.78l-3.22 3.22004h7V4.85156l-2.35 2.35Z" fill="#000"/>
  </g>
  <defs>
    <clipPath id="a">
      <path fill="#fff" transform="translate(.210938 .851562)" d="M0 0h24v24H0z"/>
    </clipPath>
  </defs>
</svg>